<mxfile host="Electron" agent="Mozilla/5.0 (Windows NT 10.0; Win64; x64) AppleWebKit/537.36 (KHTML, like Gecko) draw.io/24.7.5 Chrome/126.0.6478.183 Electron/31.3.0 Safari/537.36" version="24.7.5">
  <diagram name="PÃ¡gina-1" id="s4OTBx3BQjuaajg6iijs">
    <mxGraphModel dx="1760" dy="1064" grid="1" gridSize="10" guides="1" tooltips="1" connect="1" arrows="1" fold="1" page="1" pageScale="1" pageWidth="827" pageHeight="1169" math="0" shadow="0">
      <root>
        <mxCell id="0" />
        <mxCell id="1" parent="0" />
        <mxCell id="9MceRS-BpmXVQ219NzfB-5" style="edgeStyle=orthogonalEdgeStyle;rounded=0;orthogonalLoop=1;jettySize=auto;html=1;exitX=0.5;exitY=1;exitDx=0;exitDy=0;exitPerimeter=0;entryX=0.5;entryY=0;entryDx=0;entryDy=0;" edge="1" parent="1" source="9MceRS-BpmXVQ219NzfB-1" target="9MceRS-BpmXVQ219NzfB-2">
          <mxGeometry relative="1" as="geometry" />
        </mxCell>
        <mxCell id="9MceRS-BpmXVQ219NzfB-1" value="INICIO" style="strokeWidth=2;html=1;shape=mxgraph.flowchart.start_1;whiteSpace=wrap;fillColor=#60a917;fontColor=#ffffff;strokeColor=#2D7600;" vertex="1" parent="1">
          <mxGeometry x="60" y="60" width="80" height="30" as="geometry" />
        </mxCell>
        <mxCell id="9MceRS-BpmXVQ219NzfB-6" style="edgeStyle=orthogonalEdgeStyle;rounded=0;orthogonalLoop=1;jettySize=auto;html=1;exitX=0.5;exitY=1;exitDx=0;exitDy=0;entryX=0.5;entryY=0;entryDx=0;entryDy=0;" edge="1" parent="1" source="9MceRS-BpmXVQ219NzfB-2" target="9MceRS-BpmXVQ219NzfB-3">
          <mxGeometry relative="1" as="geometry" />
        </mxCell>
        <mxCell id="9MceRS-BpmXVQ219NzfB-2" value="&lt;div&gt;&amp;nbsp; &amp;nbsp; BSF&amp;nbsp; &amp;nbsp; STATUS,5&lt;/div&gt;&lt;div&gt;&amp;nbsp; &amp;nbsp; BCF&amp;nbsp; &amp;nbsp; STATUS,6&lt;/div&gt;&lt;div&gt;&amp;nbsp; &amp;nbsp; CLRF&amp;nbsp; &amp;nbsp;TRISB&lt;/div&gt;&lt;div&gt;&amp;nbsp; &amp;nbsp; BCF&amp;nbsp; &amp;nbsp; STATUS,5&lt;/div&gt;&lt;div&gt;&amp;nbsp; &amp;nbsp; BCF&amp;nbsp; &amp;nbsp; STATUS,6&lt;/div&gt;&lt;div&gt;&amp;nbsp; &amp;nbsp; CLRF&amp;nbsp; &amp;nbsp;PORTB&lt;/div&gt;&lt;div&gt;&amp;nbsp; &amp;nbsp; CLRF&amp;nbsp; &amp;nbsp;UNIDAD&lt;/div&gt;" style="rounded=1;whiteSpace=wrap;html=1;absoluteArcSize=1;arcSize=14;strokeWidth=2;fillColor=#1ba1e2;fontColor=#ffffff;strokeColor=#006EAF;" vertex="1" parent="1">
          <mxGeometry x="35" y="120" width="130" height="120" as="geometry" />
        </mxCell>
        <mxCell id="9MceRS-BpmXVQ219NzfB-7" style="edgeStyle=orthogonalEdgeStyle;rounded=0;orthogonalLoop=1;jettySize=auto;html=1;exitX=0.5;exitY=1;exitDx=0;exitDy=0;entryX=0.5;entryY=0;entryDx=0;entryDy=0;" edge="1" parent="1" source="9MceRS-BpmXVQ219NzfB-3" target="9MceRS-BpmXVQ219NzfB-4">
          <mxGeometry relative="1" as="geometry" />
        </mxCell>
        <mxCell id="9MceRS-BpmXVQ219NzfB-3" value="CALL&amp;nbsp; &amp;nbsp;VISUALIZAR" style="shape=process;whiteSpace=wrap;html=1;backgroundOutline=1;fillColor=#fa6800;fontColor=#000000;strokeColor=#C73500;" vertex="1" parent="1">
          <mxGeometry x="30" y="270" width="140" height="50" as="geometry" />
        </mxCell>
        <mxCell id="9MceRS-BpmXVQ219NzfB-8" style="edgeStyle=orthogonalEdgeStyle;rounded=0;orthogonalLoop=1;jettySize=auto;html=1;exitX=0.5;exitY=1;exitDx=0;exitDy=0;" edge="1" parent="1" source="9MceRS-BpmXVQ219NzfB-4">
          <mxGeometry relative="1" as="geometry">
            <mxPoint x="100" y="250" as="targetPoint" />
            <Array as="points">
              <mxPoint x="100" y="420" />
              <mxPoint x="190" y="420" />
              <mxPoint x="190" y="250" />
            </Array>
          </mxGeometry>
        </mxCell>
        <mxCell id="9MceRS-BpmXVQ219NzfB-4" value="CALL&amp;nbsp; &amp;nbsp;INTERNO" style="shape=process;whiteSpace=wrap;html=1;backgroundOutline=1;fillColor=#e3c800;fontColor=#000000;strokeColor=#B09500;" vertex="1" parent="1">
          <mxGeometry x="30" y="350" width="140" height="50" as="geometry" />
        </mxCell>
        <mxCell id="9MceRS-BpmXVQ219NzfB-14" style="edgeStyle=orthogonalEdgeStyle;rounded=0;orthogonalLoop=1;jettySize=auto;html=1;exitX=0.5;exitY=1;exitDx=0;exitDy=0;exitPerimeter=0;entryX=0.5;entryY=0;entryDx=0;entryDy=0;" edge="1" parent="1" source="9MceRS-BpmXVQ219NzfB-9" target="9MceRS-BpmXVQ219NzfB-10">
          <mxGeometry relative="1" as="geometry" />
        </mxCell>
        <mxCell id="9MceRS-BpmXVQ219NzfB-9" value="VISUALIZAR" style="strokeWidth=2;html=1;shape=mxgraph.flowchart.start_1;whiteSpace=wrap;fillColor=#fa6800;fontColor=#000000;strokeColor=#C73500;" vertex="1" parent="1">
          <mxGeometry x="290" y="50" width="80" height="30" as="geometry" />
        </mxCell>
        <mxCell id="9MceRS-BpmXVQ219NzfB-15" style="edgeStyle=orthogonalEdgeStyle;rounded=0;orthogonalLoop=1;jettySize=auto;html=1;exitX=0.5;exitY=1;exitDx=0;exitDy=0;entryX=0.5;entryY=0;entryDx=0;entryDy=0;" edge="1" parent="1" source="9MceRS-BpmXVQ219NzfB-10" target="9MceRS-BpmXVQ219NzfB-12">
          <mxGeometry relative="1" as="geometry" />
        </mxCell>
        <mxCell id="9MceRS-BpmXVQ219NzfB-10" value="MOVF&amp;nbsp; &amp;nbsp;UNIDAD,W" style="rounded=1;whiteSpace=wrap;html=1;absoluteArcSize=1;arcSize=14;strokeWidth=2;fillColor=#1ba1e2;fontColor=#ffffff;strokeColor=#006EAF;" vertex="1" parent="1">
          <mxGeometry x="270" y="110" width="120" height="30" as="geometry" />
        </mxCell>
        <mxCell id="9MceRS-BpmXVQ219NzfB-17" style="edgeStyle=orthogonalEdgeStyle;rounded=0;orthogonalLoop=1;jettySize=auto;html=1;exitX=0.5;exitY=1;exitDx=0;exitDy=0;entryX=0.5;entryY=0;entryDx=0;entryDy=0;" edge="1" parent="1" source="9MceRS-BpmXVQ219NzfB-11" target="9MceRS-BpmXVQ219NzfB-13">
          <mxGeometry relative="1" as="geometry" />
        </mxCell>
        <mxCell id="9MceRS-BpmXVQ219NzfB-11" value="MOVWF&amp;nbsp; PORTB" style="rounded=1;whiteSpace=wrap;html=1;absoluteArcSize=1;arcSize=14;strokeWidth=2;fillColor=#1ba1e2;fontColor=#ffffff;strokeColor=#006EAF;" vertex="1" parent="1">
          <mxGeometry x="270" y="240" width="120" height="30" as="geometry" />
        </mxCell>
        <mxCell id="9MceRS-BpmXVQ219NzfB-16" style="edgeStyle=orthogonalEdgeStyle;rounded=0;orthogonalLoop=1;jettySize=auto;html=1;exitX=0.5;exitY=1;exitDx=0;exitDy=0;entryX=0.5;entryY=0;entryDx=0;entryDy=0;" edge="1" parent="1" source="9MceRS-BpmXVQ219NzfB-12" target="9MceRS-BpmXVQ219NzfB-11">
          <mxGeometry relative="1" as="geometry" />
        </mxCell>
        <mxCell id="9MceRS-BpmXVQ219NzfB-12" value="CALL&amp;nbsp; &amp;nbsp;TABLA" style="shape=process;whiteSpace=wrap;html=1;backgroundOutline=1;fillColor=#a0522d;fontColor=#ffffff;strokeColor=#6D1F00;" vertex="1" parent="1">
          <mxGeometry x="260" y="170" width="140" height="50" as="geometry" />
        </mxCell>
        <mxCell id="9MceRS-BpmXVQ219NzfB-13" value="CALL&amp;nbsp; &amp;nbsp;RETARDO" style="shape=process;whiteSpace=wrap;html=1;backgroundOutline=1;fillColor=#76608a;fontColor=#ffffff;strokeColor=#432D57;" vertex="1" parent="1">
          <mxGeometry x="260" y="300" width="140" height="50" as="geometry" />
        </mxCell>
        <mxCell id="9MceRS-BpmXVQ219NzfB-18" value="RETURN" style="strokeWidth=2;html=1;shape=mxgraph.flowchart.start_1;whiteSpace=wrap;fillColor=#fa6800;fontColor=#000000;strokeColor=#C73500;" vertex="1" parent="1">
          <mxGeometry x="290" y="370" width="80" height="30" as="geometry" />
        </mxCell>
        <mxCell id="9MceRS-BpmXVQ219NzfB-19" style="edgeStyle=orthogonalEdgeStyle;rounded=0;orthogonalLoop=1;jettySize=auto;html=1;exitX=0.5;exitY=1;exitDx=0;exitDy=0;entryX=0.5;entryY=0;entryDx=0;entryDy=0;entryPerimeter=0;" edge="1" parent="1" source="9MceRS-BpmXVQ219NzfB-13" target="9MceRS-BpmXVQ219NzfB-18">
          <mxGeometry relative="1" as="geometry" />
        </mxCell>
        <mxCell id="9MceRS-BpmXVQ219NzfB-35" style="edgeStyle=orthogonalEdgeStyle;rounded=0;orthogonalLoop=1;jettySize=auto;html=1;exitX=0.5;exitY=1;exitDx=0;exitDy=0;exitPerimeter=0;entryX=0.5;entryY=0;entryDx=0;entryDy=0;" edge="1" parent="1" source="9MceRS-BpmXVQ219NzfB-20" target="9MceRS-BpmXVQ219NzfB-21">
          <mxGeometry relative="1" as="geometry" />
        </mxCell>
        <mxCell id="9MceRS-BpmXVQ219NzfB-20" value="INTERNO" style="strokeWidth=2;html=1;shape=mxgraph.flowchart.start_1;whiteSpace=wrap;fillColor=#e3c800;fontColor=#000000;strokeColor=#B09500;" vertex="1" parent="1">
          <mxGeometry x="470" y="50" width="80" height="30" as="geometry" />
        </mxCell>
        <mxCell id="9MceRS-BpmXVQ219NzfB-34" style="edgeStyle=orthogonalEdgeStyle;rounded=0;orthogonalLoop=1;jettySize=auto;html=1;exitX=0.5;exitY=1;exitDx=0;exitDy=0;entryX=0.5;entryY=0;entryDx=0;entryDy=0;" edge="1" parent="1" source="9MceRS-BpmXVQ219NzfB-21" target="9MceRS-BpmXVQ219NzfB-22">
          <mxGeometry relative="1" as="geometry" />
        </mxCell>
        <mxCell id="9MceRS-BpmXVQ219NzfB-21" value="INCF&amp;nbsp; &amp;nbsp;UNIDAD,F" style="rounded=1;whiteSpace=wrap;html=1;absoluteArcSize=1;arcSize=14;strokeWidth=2;fillColor=#1ba1e2;fontColor=#ffffff;strokeColor=#006EAF;" vertex="1" parent="1">
          <mxGeometry x="450" y="110" width="120" height="30" as="geometry" />
        </mxCell>
        <mxCell id="9MceRS-BpmXVQ219NzfB-33" style="edgeStyle=orthogonalEdgeStyle;rounded=0;orthogonalLoop=1;jettySize=auto;html=1;exitX=0.5;exitY=1;exitDx=0;exitDy=0;entryX=0.5;entryY=0;entryDx=0;entryDy=0;" edge="1" parent="1" source="9MceRS-BpmXVQ219NzfB-22" target="9MceRS-BpmXVQ219NzfB-23">
          <mxGeometry relative="1" as="geometry" />
        </mxCell>
        <mxCell id="9MceRS-BpmXVQ219NzfB-22" value="MOVLW&amp;nbsp; 10" style="rounded=1;whiteSpace=wrap;html=1;absoluteArcSize=1;arcSize=14;strokeWidth=2;fillColor=#1ba1e2;fontColor=#ffffff;strokeColor=#006EAF;" vertex="1" parent="1">
          <mxGeometry x="450" y="170" width="120" height="30" as="geometry" />
        </mxCell>
        <mxCell id="9MceRS-BpmXVQ219NzfB-23" value="SUBWF&amp;nbsp; UNIDAD,W" style="rounded=1;whiteSpace=wrap;html=1;absoluteArcSize=1;arcSize=14;strokeWidth=2;fillColor=#1ba1e2;fontColor=#ffffff;strokeColor=#006EAF;" vertex="1" parent="1">
          <mxGeometry x="450" y="230" width="120" height="30" as="geometry" />
        </mxCell>
        <mxCell id="9MceRS-BpmXVQ219NzfB-30" style="edgeStyle=orthogonalEdgeStyle;rounded=0;orthogonalLoop=1;jettySize=auto;html=1;exitX=0.5;exitY=1;exitDx=0;exitDy=0;exitPerimeter=0;entryX=0.5;entryY=0;entryDx=0;entryDy=0;" edge="1" parent="1" source="9MceRS-BpmXVQ219NzfB-24" target="9MceRS-BpmXVQ219NzfB-28">
          <mxGeometry relative="1" as="geometry" />
        </mxCell>
        <mxCell id="9MceRS-BpmXVQ219NzfB-24" value="BTFSS&amp;nbsp; STATUS,2" style="strokeWidth=2;html=1;shape=mxgraph.flowchart.decision;whiteSpace=wrap;fillColor=#f8cecc;strokeColor=#b85450;" vertex="1" parent="1">
          <mxGeometry x="445" y="290" width="130" height="80" as="geometry" />
        </mxCell>
        <mxCell id="9MceRS-BpmXVQ219NzfB-25" value="INTERNO" style="strokeWidth=2;html=1;shape=mxgraph.flowchart.start_1;whiteSpace=wrap;fillColor=#e3c800;fontColor=#000000;strokeColor=#B09500;" vertex="1" parent="1">
          <mxGeometry x="590" y="350" width="80" height="30" as="geometry" />
        </mxCell>
        <mxCell id="9MceRS-BpmXVQ219NzfB-26" style="edgeStyle=orthogonalEdgeStyle;rounded=0;orthogonalLoop=1;jettySize=auto;html=1;exitX=1;exitY=0.5;exitDx=0;exitDy=0;exitPerimeter=0;entryX=0.5;entryY=0;entryDx=0;entryDy=0;entryPerimeter=0;" edge="1" parent="1" source="9MceRS-BpmXVQ219NzfB-24" target="9MceRS-BpmXVQ219NzfB-25">
          <mxGeometry relative="1" as="geometry" />
        </mxCell>
        <mxCell id="9MceRS-BpmXVQ219NzfB-27" value="NO" style="edgeLabel;html=1;align=center;verticalAlign=middle;resizable=0;points=[];" vertex="1" connectable="0" parent="9MceRS-BpmXVQ219NzfB-26">
          <mxGeometry x="-0.36" y="-5" relative="1" as="geometry">
            <mxPoint y="-5" as="offset" />
          </mxGeometry>
        </mxCell>
        <mxCell id="9MceRS-BpmXVQ219NzfB-28" value="CLRF&amp;nbsp; &amp;nbsp;UNIDAD" style="rounded=1;whiteSpace=wrap;html=1;absoluteArcSize=1;arcSize=14;strokeWidth=2;fillColor=#1ba1e2;fontColor=#ffffff;strokeColor=#006EAF;" vertex="1" parent="1">
          <mxGeometry x="450" y="400" width="120" height="30" as="geometry" />
        </mxCell>
        <mxCell id="9MceRS-BpmXVQ219NzfB-29" value="INTERNO" style="strokeWidth=2;html=1;shape=mxgraph.flowchart.start_1;whiteSpace=wrap;fillColor=#e3c800;fontColor=#000000;strokeColor=#B09500;" vertex="1" parent="1">
          <mxGeometry x="470" y="460" width="80" height="30" as="geometry" />
        </mxCell>
        <mxCell id="9MceRS-BpmXVQ219NzfB-31" style="edgeStyle=orthogonalEdgeStyle;rounded=0;orthogonalLoop=1;jettySize=auto;html=1;exitX=0.5;exitY=1;exitDx=0;exitDy=0;entryX=0.5;entryY=0;entryDx=0;entryDy=0;entryPerimeter=0;" edge="1" parent="1" source="9MceRS-BpmXVQ219NzfB-28" target="9MceRS-BpmXVQ219NzfB-29">
          <mxGeometry relative="1" as="geometry" />
        </mxCell>
        <mxCell id="9MceRS-BpmXVQ219NzfB-32" style="edgeStyle=orthogonalEdgeStyle;rounded=0;orthogonalLoop=1;jettySize=auto;html=1;exitX=0.5;exitY=1;exitDx=0;exitDy=0;entryX=0.5;entryY=0;entryDx=0;entryDy=0;entryPerimeter=0;" edge="1" parent="1" source="9MceRS-BpmXVQ219NzfB-23" target="9MceRS-BpmXVQ219NzfB-24">
          <mxGeometry relative="1" as="geometry" />
        </mxCell>
        <mxCell id="9MceRS-BpmXVQ219NzfB-74" style="edgeStyle=orthogonalEdgeStyle;rounded=0;orthogonalLoop=1;jettySize=auto;html=1;exitX=0.5;exitY=1;exitDx=0;exitDy=0;exitPerimeter=0;entryX=0.5;entryY=0;entryDx=0;entryDy=0;" edge="1" parent="1" source="9MceRS-BpmXVQ219NzfB-75" target="9MceRS-BpmXVQ219NzfB-77">
          <mxGeometry relative="1" as="geometry" />
        </mxCell>
        <mxCell id="9MceRS-BpmXVQ219NzfB-75" value="TABLA" style="strokeWidth=2;html=1;shape=mxgraph.flowchart.start_1;whiteSpace=wrap;fillColor=#a0522d;fontColor=#ffffff;strokeColor=#6D1F00;" vertex="1" parent="1">
          <mxGeometry x="118" y="585" width="110" height="30" as="geometry" />
        </mxCell>
        <mxCell id="9MceRS-BpmXVQ219NzfB-76" style="edgeStyle=orthogonalEdgeStyle;rounded=0;orthogonalLoop=1;jettySize=auto;html=1;exitX=0.5;exitY=1;exitDx=0;exitDy=0;entryX=0.5;entryY=0;entryDx=0;entryDy=0;" edge="1" parent="1" source="9MceRS-BpmXVQ219NzfB-77" target="9MceRS-BpmXVQ219NzfB-80">
          <mxGeometry relative="1" as="geometry" />
        </mxCell>
        <mxCell id="9MceRS-BpmXVQ219NzfB-77" value="ADDWF&amp;nbsp; PCL,F" style="rounded=1;whiteSpace=wrap;html=1;absoluteArcSize=1;arcSize=14;strokeWidth=2;fillColor=#1ba1e2;fontColor=#ffffff;strokeColor=#006EAF;" vertex="1" parent="1">
          <mxGeometry x="100" y="645" width="146" height="30" as="geometry" />
        </mxCell>
        <mxCell id="9MceRS-BpmXVQ219NzfB-78" style="edgeStyle=orthogonalEdgeStyle;rounded=0;orthogonalLoop=1;jettySize=auto;html=1;exitX=1;exitY=0.5;exitDx=0;exitDy=0;" edge="1" parent="1" source="9MceRS-BpmXVQ219NzfB-80" target="9MceRS-BpmXVQ219NzfB-84">
          <mxGeometry relative="1" as="geometry" />
        </mxCell>
        <mxCell id="9MceRS-BpmXVQ219NzfB-79" value="NO" style="edgeLabel;html=1;align=center;verticalAlign=middle;resizable=0;points=[];" vertex="1" connectable="0" parent="9MceRS-BpmXVQ219NzfB-78">
          <mxGeometry x="-0.3554" y="-1" relative="1" as="geometry">
            <mxPoint as="offset" />
          </mxGeometry>
        </mxCell>
        <mxCell id="9MceRS-BpmXVQ219NzfB-80" value="PCL=PCL+0" style="rhombus;whiteSpace=wrap;html=1;fillColor=#ffe6cc;strokeColor=#d79b00;" vertex="1" parent="1">
          <mxGeometry x="113" y="695" width="120" height="60" as="geometry" />
        </mxCell>
        <mxCell id="9MceRS-BpmXVQ219NzfB-81" value="RETLW 00h" style="strokeWidth=2;html=1;shape=mxgraph.flowchart.start_1;whiteSpace=wrap;fillColor=#a0522d;strokeColor=#6D1F00;fontColor=#ffffff;" vertex="1" parent="1">
          <mxGeometry x="114.5" y="795" width="117" height="35" as="geometry" />
        </mxCell>
        <mxCell id="9MceRS-BpmXVQ219NzfB-82" style="edgeStyle=orthogonalEdgeStyle;rounded=0;orthogonalLoop=1;jettySize=auto;html=1;exitX=1;exitY=0.5;exitDx=0;exitDy=0;entryX=0.5;entryY=0;entryDx=0;entryDy=0;" edge="1" parent="1" source="9MceRS-BpmXVQ219NzfB-84" target="9MceRS-BpmXVQ219NzfB-92">
          <mxGeometry relative="1" as="geometry">
            <mxPoint x="320" y="774" as="sourcePoint" />
          </mxGeometry>
        </mxCell>
        <mxCell id="9MceRS-BpmXVQ219NzfB-83" value="NO" style="edgeLabel;html=1;align=center;verticalAlign=middle;resizable=0;points=[];" vertex="1" connectable="0" parent="9MceRS-BpmXVQ219NzfB-82">
          <mxGeometry x="-0.4297" y="3" relative="1" as="geometry">
            <mxPoint as="offset" />
          </mxGeometry>
        </mxCell>
        <mxCell id="9MceRS-BpmXVQ219NzfB-84" value="PCL=PCL+1" style="rhombus;whiteSpace=wrap;html=1;fillColor=#ffe6cc;strokeColor=#d79b00;" vertex="1" parent="1">
          <mxGeometry x="233" y="744" width="120" height="60" as="geometry" />
        </mxCell>
        <mxCell id="9MceRS-BpmXVQ219NzfB-85" value="RETLW 01h" style="strokeWidth=2;html=1;shape=mxgraph.flowchart.start_1;whiteSpace=wrap;fillColor=#a0522d;strokeColor=#6D1F00;fontColor=#ffffff;" vertex="1" parent="1">
          <mxGeometry x="234.5" y="836.5" width="117" height="35" as="geometry" />
        </mxCell>
        <mxCell id="9MceRS-BpmXVQ219NzfB-86" style="edgeStyle=orthogonalEdgeStyle;rounded=0;orthogonalLoop=1;jettySize=auto;html=1;exitX=0.5;exitY=1;exitDx=0;exitDy=0;entryX=0.5;entryY=0;entryDx=0;entryDy=0;entryPerimeter=0;" edge="1" parent="1" source="9MceRS-BpmXVQ219NzfB-80" target="9MceRS-BpmXVQ219NzfB-81">
          <mxGeometry relative="1" as="geometry" />
        </mxCell>
        <mxCell id="9MceRS-BpmXVQ219NzfB-87" value="SI" style="edgeLabel;html=1;align=center;verticalAlign=middle;resizable=0;points=[];" vertex="1" connectable="0" parent="9MceRS-BpmXVQ219NzfB-86">
          <mxGeometry x="-0.3918" y="-1" relative="1" as="geometry">
            <mxPoint y="-1" as="offset" />
          </mxGeometry>
        </mxCell>
        <mxCell id="9MceRS-BpmXVQ219NzfB-88" style="edgeStyle=orthogonalEdgeStyle;rounded=0;orthogonalLoop=1;jettySize=auto;html=1;exitX=0.5;exitY=1;exitDx=0;exitDy=0;entryX=0.5;entryY=0;entryDx=0;entryDy=0;entryPerimeter=0;" edge="1" parent="1" source="9MceRS-BpmXVQ219NzfB-84" target="9MceRS-BpmXVQ219NzfB-85">
          <mxGeometry relative="1" as="geometry" />
        </mxCell>
        <mxCell id="9MceRS-BpmXVQ219NzfB-89" value="SI" style="edgeLabel;html=1;align=center;verticalAlign=middle;resizable=0;points=[];" vertex="1" connectable="0" parent="9MceRS-BpmXVQ219NzfB-88">
          <mxGeometry x="-0.0283" y="1" relative="1" as="geometry">
            <mxPoint as="offset" />
          </mxGeometry>
        </mxCell>
        <mxCell id="9MceRS-BpmXVQ219NzfB-90" style="edgeStyle=orthogonalEdgeStyle;rounded=0;orthogonalLoop=1;jettySize=auto;html=1;exitX=1;exitY=0.5;exitDx=0;exitDy=0;" edge="1" parent="1" source="9MceRS-BpmXVQ219NzfB-92" target="9MceRS-BpmXVQ219NzfB-96">
          <mxGeometry relative="1" as="geometry">
            <mxPoint x="410.0000000000002" y="844" as="sourcePoint" />
          </mxGeometry>
        </mxCell>
        <mxCell id="9MceRS-BpmXVQ219NzfB-91" value="NO" style="edgeLabel;html=1;align=center;verticalAlign=middle;resizable=0;points=[];" vertex="1" connectable="0" parent="9MceRS-BpmXVQ219NzfB-90">
          <mxGeometry x="-0.3554" y="-1" relative="1" as="geometry">
            <mxPoint as="offset" />
          </mxGeometry>
        </mxCell>
        <mxCell id="9MceRS-BpmXVQ219NzfB-92" value="PCL=PCL+2" style="rhombus;whiteSpace=wrap;html=1;fillColor=#ffe6cc;strokeColor=#d79b00;" vertex="1" parent="1">
          <mxGeometry x="350" y="811.5" width="120" height="60" as="geometry" />
        </mxCell>
        <mxCell id="9MceRS-BpmXVQ219NzfB-93" value="RETLW 02h" style="strokeWidth=2;html=1;shape=mxgraph.flowchart.start_1;whiteSpace=wrap;fillColor=#a0522d;strokeColor=#6D1F00;fontColor=#ffffff;" vertex="1" parent="1">
          <mxGeometry x="351.5" y="936.5" width="117" height="35" as="geometry" />
        </mxCell>
        <mxCell id="9MceRS-BpmXVQ219NzfB-94" style="edgeStyle=orthogonalEdgeStyle;rounded=0;orthogonalLoop=1;jettySize=auto;html=1;exitX=1;exitY=0.5;exitDx=0;exitDy=0;entryX=0.5;entryY=0;entryDx=0;entryDy=0;" edge="1" parent="1" source="9MceRS-BpmXVQ219NzfB-96" target="9MceRS-BpmXVQ219NzfB-102">
          <mxGeometry relative="1" as="geometry" />
        </mxCell>
        <mxCell id="9MceRS-BpmXVQ219NzfB-95" value="NO" style="edgeLabel;html=1;align=center;verticalAlign=middle;resizable=0;points=[];" vertex="1" connectable="0" parent="9MceRS-BpmXVQ219NzfB-94">
          <mxGeometry x="-0.2786" y="1" relative="1" as="geometry">
            <mxPoint as="offset" />
          </mxGeometry>
        </mxCell>
        <mxCell id="9MceRS-BpmXVQ219NzfB-96" value="PCL=PCL+3" style="rhombus;whiteSpace=wrap;html=1;fillColor=#ffe6cc;strokeColor=#d79b00;" vertex="1" parent="1">
          <mxGeometry x="447" y="884" width="120" height="60" as="geometry" />
        </mxCell>
        <mxCell id="9MceRS-BpmXVQ219NzfB-97" value="RETLW 03h" style="strokeWidth=2;html=1;shape=mxgraph.flowchart.start_1;whiteSpace=wrap;fillColor=#a0522d;strokeColor=#6D1F00;fontColor=#ffffff;" vertex="1" parent="1">
          <mxGeometry x="448.5" y="976.5" width="117" height="35" as="geometry" />
        </mxCell>
        <mxCell id="9MceRS-BpmXVQ219NzfB-98" style="edgeStyle=orthogonalEdgeStyle;rounded=0;orthogonalLoop=1;jettySize=auto;html=1;exitX=0.5;exitY=1;exitDx=0;exitDy=0;entryX=0.5;entryY=0;entryDx=0;entryDy=0;entryPerimeter=0;" edge="1" parent="1" source="9MceRS-BpmXVQ219NzfB-92" target="9MceRS-BpmXVQ219NzfB-93">
          <mxGeometry relative="1" as="geometry" />
        </mxCell>
        <mxCell id="9MceRS-BpmXVQ219NzfB-99" value="SI" style="edgeLabel;html=1;align=center;verticalAlign=middle;resizable=0;points=[];" vertex="1" connectable="0" parent="9MceRS-BpmXVQ219NzfB-98">
          <mxGeometry x="-0.3918" y="-1" relative="1" as="geometry">
            <mxPoint y="-1" as="offset" />
          </mxGeometry>
        </mxCell>
        <mxCell id="9MceRS-BpmXVQ219NzfB-100" style="edgeStyle=orthogonalEdgeStyle;rounded=0;orthogonalLoop=1;jettySize=auto;html=1;exitX=0.5;exitY=1;exitDx=0;exitDy=0;entryX=0.5;entryY=0;entryDx=0;entryDy=0;entryPerimeter=0;" edge="1" parent="1" source="9MceRS-BpmXVQ219NzfB-96" target="9MceRS-BpmXVQ219NzfB-97">
          <mxGeometry relative="1" as="geometry" />
        </mxCell>
        <mxCell id="9MceRS-BpmXVQ219NzfB-101" value="SI" style="edgeLabel;html=1;align=center;verticalAlign=middle;resizable=0;points=[];" vertex="1" connectable="0" parent="9MceRS-BpmXVQ219NzfB-100">
          <mxGeometry x="-0.0283" y="1" relative="1" as="geometry">
            <mxPoint as="offset" />
          </mxGeometry>
        </mxCell>
        <mxCell id="9MceRS-BpmXVQ219NzfB-113" style="edgeStyle=orthogonalEdgeStyle;rounded=0;orthogonalLoop=1;jettySize=auto;html=1;exitX=1;exitY=0.5;exitDx=0;exitDy=0;entryX=0.5;entryY=0;entryDx=0;entryDy=0;" edge="1" parent="1" source="9MceRS-BpmXVQ219NzfB-102" target="9MceRS-BpmXVQ219NzfB-112">
          <mxGeometry relative="1" as="geometry" />
        </mxCell>
        <mxCell id="9MceRS-BpmXVQ219NzfB-115" value="NO" style="edgeLabel;html=1;align=center;verticalAlign=middle;resizable=0;points=[];" vertex="1" connectable="0" parent="9MceRS-BpmXVQ219NzfB-113">
          <mxGeometry x="-0.2799" y="-1" relative="1" as="geometry">
            <mxPoint as="offset" />
          </mxGeometry>
        </mxCell>
        <mxCell id="9MceRS-BpmXVQ219NzfB-102" value="PCL=PCL+4" style="rhombus;whiteSpace=wrap;html=1;fillColor=#ffe6cc;strokeColor=#d79b00;" vertex="1" parent="1">
          <mxGeometry x="565.5" y="936.5" width="120" height="60" as="geometry" />
        </mxCell>
        <mxCell id="9MceRS-BpmXVQ219NzfB-103" value="RETLW 04h" style="strokeWidth=2;html=1;shape=mxgraph.flowchart.start_1;whiteSpace=wrap;fillColor=#a0522d;strokeColor=#6D1F00;fontColor=#ffffff;" vertex="1" parent="1">
          <mxGeometry x="568.5" y="1029" width="117" height="35" as="geometry" />
        </mxCell>
        <mxCell id="9MceRS-BpmXVQ219NzfB-104" style="edgeStyle=orthogonalEdgeStyle;rounded=0;orthogonalLoop=1;jettySize=auto;html=1;exitX=0.5;exitY=1;exitDx=0;exitDy=0;entryX=0.5;entryY=0;entryDx=0;entryDy=0;entryPerimeter=0;" edge="1" parent="1" source="9MceRS-BpmXVQ219NzfB-102" target="9MceRS-BpmXVQ219NzfB-103">
          <mxGeometry relative="1" as="geometry" />
        </mxCell>
        <mxCell id="9MceRS-BpmXVQ219NzfB-105" value="SI" style="edgeLabel;html=1;align=center;verticalAlign=middle;resizable=0;points=[];" vertex="1" connectable="0" parent="9MceRS-BpmXVQ219NzfB-104">
          <mxGeometry x="-0.0283" y="1" relative="1" as="geometry">
            <mxPoint as="offset" />
          </mxGeometry>
        </mxCell>
        <mxCell id="9MceRS-BpmXVQ219NzfB-110" style="edgeStyle=orthogonalEdgeStyle;rounded=0;orthogonalLoop=1;jettySize=auto;html=1;exitX=0.5;exitY=1;exitDx=0;exitDy=0;entryX=0.5;entryY=0;entryDx=0;entryDy=0;" edge="1" parent="1">
          <mxGeometry relative="1" as="geometry">
            <mxPoint x="245" y="1145" as="targetPoint" />
            <mxPoint x="245" y="1115" as="sourcePoint" />
          </mxGeometry>
        </mxCell>
        <mxCell id="9MceRS-BpmXVQ219NzfB-120" style="edgeStyle=orthogonalEdgeStyle;rounded=0;orthogonalLoop=1;jettySize=auto;html=1;exitX=1;exitY=0.5;exitDx=0;exitDy=0;entryX=0.5;entryY=0;entryDx=0;entryDy=0;" edge="1" parent="1" source="9MceRS-BpmXVQ219NzfB-112" target="9MceRS-BpmXVQ219NzfB-119">
          <mxGeometry relative="1" as="geometry" />
        </mxCell>
        <mxCell id="9MceRS-BpmXVQ219NzfB-121" value="NO" style="edgeLabel;html=1;align=center;verticalAlign=middle;resizable=0;points=[];" vertex="1" connectable="0" parent="9MceRS-BpmXVQ219NzfB-120">
          <mxGeometry x="-0.3086" y="1" relative="1" as="geometry">
            <mxPoint as="offset" />
          </mxGeometry>
        </mxCell>
        <mxCell id="9MceRS-BpmXVQ219NzfB-112" value="PCL=PCL+5" style="rhombus;whiteSpace=wrap;html=1;fillColor=#ffe6cc;strokeColor=#d79b00;" vertex="1" parent="1">
          <mxGeometry x="670" y="996.5" width="120" height="60" as="geometry" />
        </mxCell>
        <mxCell id="9MceRS-BpmXVQ219NzfB-116" value="RETLW 05h" style="strokeWidth=2;html=1;shape=mxgraph.flowchart.start_1;whiteSpace=wrap;fillColor=#a0522d;strokeColor=#6D1F00;fontColor=#ffffff;" vertex="1" parent="1">
          <mxGeometry x="671.5" y="1085" width="117" height="35" as="geometry" />
        </mxCell>
        <mxCell id="9MceRS-BpmXVQ219NzfB-117" style="edgeStyle=orthogonalEdgeStyle;rounded=0;orthogonalLoop=1;jettySize=auto;html=1;exitX=0.5;exitY=1;exitDx=0;exitDy=0;entryX=0.5;entryY=0;entryDx=0;entryDy=0;entryPerimeter=0;" edge="1" parent="1" source="9MceRS-BpmXVQ219NzfB-112" target="9MceRS-BpmXVQ219NzfB-116">
          <mxGeometry relative="1" as="geometry" />
        </mxCell>
        <mxCell id="9MceRS-BpmXVQ219NzfB-118" value="SI" style="edgeLabel;html=1;align=center;verticalAlign=middle;resizable=0;points=[];" vertex="1" connectable="0" parent="9MceRS-BpmXVQ219NzfB-117">
          <mxGeometry x="-0.3333" relative="1" as="geometry">
            <mxPoint as="offset" />
          </mxGeometry>
        </mxCell>
        <mxCell id="9MceRS-BpmXVQ219NzfB-124" style="edgeStyle=orthogonalEdgeStyle;rounded=0;orthogonalLoop=1;jettySize=auto;html=1;exitX=1;exitY=0.5;exitDx=0;exitDy=0;entryX=0.5;entryY=0;entryDx=0;entryDy=0;" edge="1" parent="1" source="9MceRS-BpmXVQ219NzfB-119" target="9MceRS-BpmXVQ219NzfB-122">
          <mxGeometry relative="1" as="geometry" />
        </mxCell>
        <mxCell id="9MceRS-BpmXVQ219NzfB-126" value="NO" style="edgeLabel;html=1;align=center;verticalAlign=middle;resizable=0;points=[];" vertex="1" connectable="0" parent="9MceRS-BpmXVQ219NzfB-124">
          <mxGeometry x="-0.2817" y="-2" relative="1" as="geometry">
            <mxPoint as="offset" />
          </mxGeometry>
        </mxCell>
        <mxCell id="9MceRS-BpmXVQ219NzfB-119" value="PCL=PCL+6" style="rhombus;whiteSpace=wrap;html=1;fillColor=#ffe6cc;strokeColor=#d79b00;" vertex="1" parent="1">
          <mxGeometry x="780" y="1056.5" width="120" height="60" as="geometry" />
        </mxCell>
        <mxCell id="9MceRS-BpmXVQ219NzfB-134" style="edgeStyle=orthogonalEdgeStyle;rounded=0;orthogonalLoop=1;jettySize=auto;html=1;exitX=1;exitY=0.5;exitDx=0;exitDy=0;entryX=0.5;entryY=0;entryDx=0;entryDy=0;" edge="1" parent="1" source="9MceRS-BpmXVQ219NzfB-122" target="9MceRS-BpmXVQ219NzfB-132">
          <mxGeometry relative="1" as="geometry" />
        </mxCell>
        <mxCell id="9MceRS-BpmXVQ219NzfB-135" value="NO" style="edgeLabel;html=1;align=center;verticalAlign=middle;resizable=0;points=[];" vertex="1" connectable="0" parent="9MceRS-BpmXVQ219NzfB-134">
          <mxGeometry x="-0.3002" y="1" relative="1" as="geometry">
            <mxPoint as="offset" />
          </mxGeometry>
        </mxCell>
        <mxCell id="9MceRS-BpmXVQ219NzfB-122" value="PCL=PCL+7" style="rhombus;whiteSpace=wrap;html=1;fillColor=#ffe6cc;strokeColor=#d79b00;" vertex="1" parent="1">
          <mxGeometry x="900" y="1116.5" width="120" height="60" as="geometry" />
        </mxCell>
        <mxCell id="9MceRS-BpmXVQ219NzfB-123" value="RETLW 06h" style="strokeWidth=2;html=1;shape=mxgraph.flowchart.start_1;whiteSpace=wrap;fillColor=#a0522d;strokeColor=#6D1F00;fontColor=#ffffff;" vertex="1" parent="1">
          <mxGeometry x="781.5" y="1155" width="117" height="35" as="geometry" />
        </mxCell>
        <mxCell id="9MceRS-BpmXVQ219NzfB-125" value="RETLW 07h" style="strokeWidth=2;html=1;shape=mxgraph.flowchart.start_1;whiteSpace=wrap;fillColor=#a0522d;strokeColor=#6D1F00;fontColor=#ffffff;fontStyle=1" vertex="1" parent="1">
          <mxGeometry x="901.5" y="1209" width="117" height="35" as="geometry" />
        </mxCell>
        <mxCell id="9MceRS-BpmXVQ219NzfB-128" style="edgeStyle=orthogonalEdgeStyle;rounded=0;orthogonalLoop=1;jettySize=auto;html=1;exitX=0.5;exitY=1;exitDx=0;exitDy=0;entryX=0.5;entryY=0;entryDx=0;entryDy=0;entryPerimeter=0;" edge="1" parent="1" source="9MceRS-BpmXVQ219NzfB-119" target="9MceRS-BpmXVQ219NzfB-123">
          <mxGeometry relative="1" as="geometry" />
        </mxCell>
        <mxCell id="9MceRS-BpmXVQ219NzfB-129" value="SI" style="edgeLabel;html=1;align=center;verticalAlign=middle;resizable=0;points=[];" vertex="1" connectable="0" parent="9MceRS-BpmXVQ219NzfB-128">
          <mxGeometry x="-0.0909" y="3" relative="1" as="geometry">
            <mxPoint as="offset" />
          </mxGeometry>
        </mxCell>
        <mxCell id="9MceRS-BpmXVQ219NzfB-130" style="edgeStyle=orthogonalEdgeStyle;rounded=0;orthogonalLoop=1;jettySize=auto;html=1;exitX=0.5;exitY=1;exitDx=0;exitDy=0;entryX=0.5;entryY=0;entryDx=0;entryDy=0;entryPerimeter=0;" edge="1" parent="1" source="9MceRS-BpmXVQ219NzfB-122" target="9MceRS-BpmXVQ219NzfB-125">
          <mxGeometry relative="1" as="geometry" />
        </mxCell>
        <mxCell id="9MceRS-BpmXVQ219NzfB-131" value="SI" style="edgeLabel;html=1;align=center;verticalAlign=middle;resizable=0;points=[];" vertex="1" connectable="0" parent="9MceRS-BpmXVQ219NzfB-130">
          <mxGeometry x="-0.0872" y="-1" relative="1" as="geometry">
            <mxPoint as="offset" />
          </mxGeometry>
        </mxCell>
        <mxCell id="9MceRS-BpmXVQ219NzfB-137" style="edgeStyle=orthogonalEdgeStyle;rounded=0;orthogonalLoop=1;jettySize=auto;html=1;exitX=1;exitY=0.5;exitDx=0;exitDy=0;entryX=0.5;entryY=0;entryDx=0;entryDy=0;" edge="1" parent="1" source="9MceRS-BpmXVQ219NzfB-132" target="9MceRS-BpmXVQ219NzfB-133">
          <mxGeometry relative="1" as="geometry" />
        </mxCell>
        <mxCell id="9MceRS-BpmXVQ219NzfB-138" value="NO" style="edgeLabel;html=1;align=center;verticalAlign=middle;resizable=0;points=[];" vertex="1" connectable="0" parent="9MceRS-BpmXVQ219NzfB-137">
          <mxGeometry x="-0.3885" y="-3" relative="1" as="geometry">
            <mxPoint as="offset" />
          </mxGeometry>
        </mxCell>
        <mxCell id="9MceRS-BpmXVQ219NzfB-132" value="PCL=PCL+8" style="rhombus;whiteSpace=wrap;html=1;fillColor=#ffe6cc;strokeColor=#d79b00;" vertex="1" parent="1">
          <mxGeometry x="1030" y="1176.5" width="120" height="60" as="geometry" />
        </mxCell>
        <mxCell id="9MceRS-BpmXVQ219NzfB-133" value="PCL=PCL+9" style="rhombus;whiteSpace=wrap;html=1;fillColor=#ffe6cc;strokeColor=#d79b00;" vertex="1" parent="1">
          <mxGeometry x="1160.5" y="1244" width="120" height="60" as="geometry" />
        </mxCell>
        <mxCell id="9MceRS-BpmXVQ219NzfB-136" value="RETLW 08h" style="strokeWidth=2;html=1;shape=mxgraph.flowchart.start_1;whiteSpace=wrap;fillColor=#a0522d;strokeColor=#6D1F00;fontColor=#ffffff;fontStyle=1" vertex="1" parent="1">
          <mxGeometry x="1031.5" y="1275" width="117" height="35" as="geometry" />
        </mxCell>
        <mxCell id="9MceRS-BpmXVQ219NzfB-139" style="edgeStyle=orthogonalEdgeStyle;rounded=0;orthogonalLoop=1;jettySize=auto;html=1;exitX=0.5;exitY=1;exitDx=0;exitDy=0;entryX=0.5;entryY=0;entryDx=0;entryDy=0;entryPerimeter=0;" edge="1" parent="1" source="9MceRS-BpmXVQ219NzfB-132" target="9MceRS-BpmXVQ219NzfB-136">
          <mxGeometry relative="1" as="geometry" />
        </mxCell>
        <mxCell id="9MceRS-BpmXVQ219NzfB-143" value="SI" style="edgeLabel;html=1;align=center;verticalAlign=middle;resizable=0;points=[];" vertex="1" connectable="0" parent="9MceRS-BpmXVQ219NzfB-139">
          <mxGeometry x="-0.2987" y="2" relative="1" as="geometry">
            <mxPoint as="offset" />
          </mxGeometry>
        </mxCell>
        <mxCell id="9MceRS-BpmXVQ219NzfB-140" value="RETLW 09h" style="strokeWidth=2;html=1;shape=mxgraph.flowchart.start_1;whiteSpace=wrap;fillColor=#a0522d;strokeColor=#6D1F00;fontColor=#ffffff;fontStyle=1" vertex="1" parent="1">
          <mxGeometry x="1162" y="1345" width="117" height="35" as="geometry" />
        </mxCell>
        <mxCell id="9MceRS-BpmXVQ219NzfB-141" style="edgeStyle=orthogonalEdgeStyle;rounded=0;orthogonalLoop=1;jettySize=auto;html=1;exitX=0.5;exitY=1;exitDx=0;exitDy=0;entryX=0.5;entryY=0;entryDx=0;entryDy=0;entryPerimeter=0;" edge="1" parent="1" source="9MceRS-BpmXVQ219NzfB-133" target="9MceRS-BpmXVQ219NzfB-140">
          <mxGeometry relative="1" as="geometry" />
        </mxCell>
        <mxCell id="9MceRS-BpmXVQ219NzfB-142" value="SI" style="edgeLabel;html=1;align=center;verticalAlign=middle;resizable=0;points=[];" vertex="1" connectable="0" parent="9MceRS-BpmXVQ219NzfB-141">
          <mxGeometry x="0.0081" relative="1" as="geometry">
            <mxPoint y="1" as="offset" />
          </mxGeometry>
        </mxCell>
      </root>
    </mxGraphModel>
  </diagram>
</mxfile>
